<?xml version="1.0" encoding="UTF-8"?>
<svg id="Layer_1" xmlns="http://www.w3.org/2000/svg" version="1.1" viewBox="0 0 3401.57 3401.57">
  <!-- Generator: Adobe Illustrator 29.0.1, SVG Export Plug-In . SVG Version: 2.1.0 Build 192)  -->
  <defs>
    <style>
      .st0 {
        fill: #e6e6e6;
      }

      .st1 {
        fill: #b3b3b3;
      }

      .st2 {
        fill: #999;
      }
    </style>
  </defs>
  <rect class="st0" x="0" y="0" width="3401.57" height="3401.57"/>
  <path class="st2" d="M2302.4,1335.22c28.19,25.99,17.35,85.68,3.65,153.88-13.72,68.16-56.8,158.41-69.07,168.49-12.27,10.06-46.35-2.57-46.35-2.57,0,0-24.74,131.93-128.13,250.62-2.86,3.29-5.78,6.57-8.77,9.83-2.69,2.92-5.41,5.85-8.19,8.76-5.86,6.13-11.94,12.18-18.25,18.18-3.86,3.67-7.8,7.32-11.83,10.92-143.21,127.76-259.42,162.25-349.82,157.24-86.72-4.81-244.78-65.1-326.92-203.14-3.5-5.87-6.86-11.89-10.07-18.05-.84-1.6-1.67-3.21-2.5-4.8-2.16-4.2-4.29-8.36-6.37-12.49-2.71-5.38-5.36-10.69-7.94-15.95-65.19-133.05-85.18-224.44-85.18-224.44,0,0-38.48,19.42-54.13,9.92-15.68-9.46-26.4-59.62-51.57-101.93-25.18-42.33-52.45-160.17-33.45-202.19,18.99-42.05,57.83-66.94,88.71-40.93-20.56-41.46-82.43-184.91-73.85-253.38,8.58-68.44,4.6-258.23,121.14-333.61,116.54-75.38,190.26-135.92,312.24-79.62,0,0,155.62-140,360.08-64.03,204.47,75.95,345.92,154.89,387.93,260.62,42.02,105.71,46.71,253.35,20.22,339.12-26.08,84.44-51.8,164.18-52.59,166.66,1.45-1.38,23.71-22.28,51.01,2.89Z"/>
  <path class="st1" d="M3154.07,3401.57H257.5s42.5-466.51,88.93-595.24c38.3-106.08,87.63-159.08,151.89-202.73,93.64-41.54,211.55-94.89,338.26-140.12,38.48-13.74,427.59-76.23,519.57-142.02,70.89-50.71,35.22-307.15,39.57-391.75,82.14,149.08,183.2,162.19,269.92,167.39,90.4,5.41,155.61,20.16,298.82-117.82,4.03-3.88,7.97-7.83,11.83-11.79,6.31-6.47,12.39-13.01,18.25-19.63,2.78-3.14,5.5-6.3,8.19-9.46,2.99-3.53,5.91-7.07,8.77-10.62,3.01,83.86-43.06,339.09,36.92,393.68,93.44,63.77,478.09,137.28,516.57,151.02,126.71,45.23,241.62,89.58,335.26,131.12,64.26,43.65,113.59,96.65,151.89,202.73,46.43,128.73,101.93,595.24,101.93,595.24Z"/>
  <path class="st1" d="M2321.58,1054.52c-3.58-184.52-92.58-369.52-239.76-482.42-26.17-20.33-55.16-36.14-85.66-47.74-127.08-48.3-280.21-23.4-389.44,55.01-21.84,15.68-41.89,33.52-59.48,53.4-125.24-49.78-275.24-24.78-367.24,82.22-64,74-110,162-111,257,0,169,19,338,6.1,507.43-1.18,30.32-2.91,60.68-5.72,91.9-2.38,28.03-5.38,54.88-10.38,82.66-13,101.01-45,194.01-68,297.01-12,57-14,118,24,164,40,48,106,46,162,40,63-6,125-13,188.46-18.23,33.85-2.71,67.7-5.2,101.55-7.06,33.86-1.86,67.73-3.09,101.65-3.26,22.72-.22,45.76-.33,68.97-.56h139.97c25.71.45,50.87.6,75.57.8,27.96.11,55.74.72,83.45,1.75,27.71,1.03,55.35,2.49,83.03,4.32,118.36-1.75,250.36,59.25,357.36-22.75,44-34,41-91,29-140-29-119-57-233-66.15-351.7-1.97-24.25-3.55-48.52-4.7-72.82-1.14-24.3-1.84-48.64-2.25-73.01-3.9-139.47-18.9-278.47-11.32-417.95h0Z"/>
</svg>