<?xml version="1.0" encoding="UTF-8"?>
<svg id="Layer_1" xmlns="http://www.w3.org/2000/svg" version="1.1" viewBox="0 0 3401.57 3401.57">
  <!-- Generator: Adobe Illustrator 29.0.1, SVG Export Plug-In . SVG Version: 2.1.0 Build 192)  -->
  <defs>
    <style>
      .st0 {
        fill: #e6e6e6;
      }

      .st1 {
        fill: #b3b3b3;
      }
    </style>
  </defs>
  <rect class="st0" x="0" y="0" width="3401.57" height="3401.57"/>
  <g>
    <path class="st1" d="M2302.4,1311.73c28.19,28.07,17.35,92.54,3.65,166.19-13.72,73.61-56.8,171.08-69.07,181.97-12.27,10.87-46.35-2.78-46.35-2.78,0,0-24.74,142.48-128.13,270.67-2.86,3.55-5.78,7.09-8.77,10.62-2.69,3.16-5.41,6.32-8.19,9.46-5.86,6.62-11.94,13.16-18.25,19.63-3.86,3.96-7.8,7.91-11.83,11.79-143.21,137.98-259.42,175.23-349.82,169.82-86.72-5.2-244.78-70.31-326.92-219.39-3.5-6.34-6.86-12.84-10.07-19.49-.84-1.73-1.67-3.47-2.5-5.19-2.16-4.54-4.29-9.03-6.37-13.49-2.71-5.81-5.36-11.55-7.94-17.23-65.19-143.69-85.18-242.39-85.18-242.39,0,0-38.48,20.97-54.13,10.71-15.68-10.22-26.4-64.39-51.57-110.08-25.18-45.72-52.45-172.98-33.45-218.36,18.99-45.41,57.83-72.29,88.71-44.2-20.56-44.78-82.43-199.7-73.85-273.65,8.58-73.92,4.6-278.89,121.14-360.3,116.54-81.41,190.26-146.79,312.24-85.99,0,0,155.62-151.2,360.08-69.15,204.47,82.03,345.92,167.28,387.93,281.47,42.02,114.17,46.71,273.62,20.22,366.25-26.08,91.2-51.8,177.31-52.59,179.99,1.45-1.49,23.71-24.06,51.01,3.12Z"/>
    <path class="st1" d="M3260.07,3401.57H141.5s104.5-512.51,150.93-641.24c38.3-106.08,87.63-159.08,151.89-202.73,93.64-41.54,267.53-111.68,392.26-162.12,39.02-12.13,73.64-21.99,99.13-28.16,104.5-25.28,235.46-95.07,327.44-160.86,70.89-50.71,71.22-192.15,75.57-276.75,82.14,149.08,240.2,214.19,326.92,219.39,90.4,5.41,206.61-31.84,349.82-169.82,4.03-3.88,7.97-7.83,11.83-11.79,6.31-6.47,12.39-13.01,18.25-19.63,2.78-3.14,5.5-6.3,8.19-9.46,2.99-3.53,5.91-7.07,8.77-10.62,3.01,83.86-4.06,224.09,75.92,278.68,93.44,63.77,222.94,135.58,327.44,160.86,25.49,6.17,60.11,16.03,99.13,28.16,124.73,50.44,298.62,120.58,392.26,162.12,64.26,43.65,113.59,96.65,151.89,202.73,46.43,128.73,150.93,641.24,150.93,641.24Z"/>
  </g>
</svg>