<?xml version="1.0" encoding="UTF-8"?>
<svg id="Layer_1" xmlns="http://www.w3.org/2000/svg" version="1.1" viewBox="0 0 3600 3600">
  <!-- Generator: Adobe Illustrator 29.0.1, SVG Export Plug-In . SVG Version: 2.1.0 Build 192)  -->
  <defs>
    <style>
      .st0 {
        fill: #e6e6e6;
      }

      .st1 {
        fill: #b3b3b3;
      }
    </style>
  </defs>
  <rect class="st0" width="3600" height="3600"/>
  <path class="st1" d="M3442.71,3600c-9.22-48.4-34.41-95.01-45.47-141.36-6.49-27.17-23.44-71.67-35.26-93.75-49.21-91.94-156.87-242.09-277.42-311.51-60.27-34.71-127.95-62.92-195.8-89.28-181.22-58.97-367.72-149.05-527.59-277.72-119.9-115.81-179.24-268.85-165.42-416.47,1.53-16.4,3.97-32.74,7.33-48.95,5.51-84.89,41.75-155.62,87.58-221.43,3.49,2.29,7.79,3.21,12.5,1.29,6.8-2.77,11.13-10.1,16.59-14.22,4.95-3.73,10.47-7.04,15.65-10.67,4.53-3.17,9.34-7.86,13.33-11.73,3.75-3.63,7.31-7.77,11.01-11.53,4.57-4.64,12.78-8.75,16.6-13.73,1.28-1.68,1.97-3.87,3.25-5.75,2.63-3.88,5.97-7.79,9.04-11.41,5.66-6.68,8.74-13.4,8.94-22.05.08-3.35-.53-6.9-.13-10.23.33-2.84,1.91-3.8,2.43-6.16.76-3.45.89-7.46,1.61-11,.93-4.54,1.3-6.48,3.79-10.77,2.17-3.73,4.28-8.03,5.12-12.27.34-1.69-.01-4.07.16-6.1,13.3-17.91,26.02-36.02,37.66-54.53,1.97-11.64,2.25-22.04,7.21-33.32,2.06-4.68,2.63-8.89,3.79-13.37,4.27-8.03,8.6-16.07,13.24-24.05,3.07-5.28,6.89-10.36,9.16-16.22,2.98-7.67,6.87-14.69,6.99-23.34.12-8.97-.05-17.96-.05-26.92,0-8.07,1.62-17.52-1.57-25.15-2.94-7.04-11.2-15.16-18.43-18.21-3.88-1.64-6.44-1.35-10.59-1.51-4.23-.16-7.08-1.88-11.22-2.62-.13-.58-.25-1.15-4.82,2.56-.09.6-.4,1.21-.54,1.82-1.7-7.57-5.83-11.72-6.08-20.67-.21-7.55.04-15.15.08-22.71.04-8.44,2.48-14.82,4.7-23.04,1.96-7.25-.17-15.07,1.7-22.06,106.82-302.14-27.31-544.92-253.78-725.07-53.29-51.47-133.22-38.6-187.05-98.02-30.89-16.6-63.33-29.35-96.67-38.61-200.03-55.59-432.34,14.38-582.21,149.5-199.83,154.41-279.76,437.51-229.62,698.01.78,7.01-.5,12.77,2.33,19.61,1.25,3.04,3.43,6.18,4.24,9.09,1.67,5.95.56,11.34,3.98,17.3,1.93,3.37,4.48,5.5,5.6,9.08,1.33,4.26,1.24,7.25,3.58,11.14,2.74,4.57,7.87,8.99,9.49,14.48,1.73,5.88.58,12.78.58,18.84,0,8.4,2.46,21.37-.58,29.23-4.52,11.68-19.58,18.02-22.51,30.59-2.07,8.87-.23,20.04-.23,29.2,0,9.7-1.37,20.49-.16,30.12.85,6.75,3.7,11.97,7.4,17.53,6.7,10.07,11.59,20.24,16.88,30.96,5.21,10.55,8.97,21.24,13.42,32.28,2.24,5.56,1.34,10.19,2.91,15.91,1.58,5.76,3.69,5.67,6.28,9.82,2.8,4.49,3.65,6.91,5.72,11.99,1.91,4.68,2.61,9.26,4.01,13.68,1.41,4.46,5.77,8.27,7.82,12.88,2.48,5.55,1.98,9.25,2.25,15.27.34,7.61,3.7,11.35,6.84,18.16,3.25,7.05,2.32,14.62,5.65,21.47.6,1.24,3.13,2.46,3.6,3.61,1.06,2.55-.14,4.86.81,7.31,2.01,5.2,7.26,9.21,9.87,14.5,2.58,5.23,5.41,9.07,9.04,13.6,7.81,9.75,14.15,19.52,22.47,28.86,4.83,5.42,7.89,14.01,12.49,18.9,3.91,4.15,11.29,7.94,16.2,10.99,5.29,3.28,13.8,6.3,17.78,11.43,4.85,6.26,8.62,18.7,11.94,26.32,53.26,111.88,146.52,227.69,133.2,369.24-39.97,295.96-373.02,411.77-645.71,469.6-33.63,13.42-66.11,28.35-97.41,44.72-156.5,81.87-283.52,199.88-377.38,345.74-21.45,33.34-41.17,68.13-59.11,104.28-27.91,66.58-45.34,132.68-59.91,206.64h3266.92Z"/>
</svg>